HIERARCHY
ROOT Hips
{
	OFFSET 0.00000 0.00000 0.00000
	CHANNELS 6 Xposition Yposition Zposition Zrotation Yrotation Xrotation 
	JOINT LHipJoint
	{
		OFFSET 0 0 0
		CHANNELS 3 Zrotation Yrotation Xrotation
		JOINT LeftUpLeg
		{
			OFFSET 1.61328 -1.70571 0.84375
			CHANNELS 3 Zrotation Yrotation Xrotation
			JOINT LeftLeg
			{
				OFFSET 2.32400 -6.38513 0.00000
				CHANNELS 3 Zrotation Yrotation Xrotation
				JOINT LeftFoot
				{
					OFFSET 2.58843 -7.11166 0.00000
					CHANNELS 3 Zrotation Yrotation Xrotation
					JOINT LeftToeBase
					{
						OFFSET 0.17200 -0.47257 2.47970
						CHANNELS 3 Zrotation Yrotation Xrotation
						End Site
						{
							OFFSET 0.00000 -0.00000 1.26912
						}
					}
				}
			}
		}
	}
	JOINT RHipJoint
	{
		OFFSET 0 0 0
		CHANNELS 3 Zrotation Yrotation Xrotation
		JOINT RightUpLeg
		{
			OFFSET -1.49930 -1.70570 0.84375
			CHANNELS 3 Zrotation Yrotation Xrotation
			JOINT RightLeg
			{
				OFFSET -2.30458 -6.33178 0.00000
				CHANNELS 3 Zrotation Yrotation Xrotation
				JOINT RightFoot
				{
					OFFSET -2.62261 -7.20556 0.00000
					CHANNELS 3 Zrotation Yrotation Xrotation
					JOINT RightToeBase
					{
						OFFSET -0.18709 -0.51403 2.51340
						CHANNELS 3 Zrotation Yrotation Xrotation
						End Site
						{
							OFFSET -0.00000 -0.00000 1.28858
						}
					}
				}
			}
		}
	}
	JOINT LowerBack
	{
		OFFSET 0 0 0
		CHANNELS 3 Zrotation Yrotation Xrotation
		JOINT Spine
		{
			OFFSET -0.03798 2.19274 -0.19881
			CHANNELS 3 Zrotation Yrotation Xrotation
			JOINT Spine1
			{
				OFFSET -0.00024 2.19460 0.05248
				CHANNELS 3 Zrotation Yrotation Xrotation
				JOINT Neck
				{
					OFFSET 0 0 0
					CHANNELS 3 Zrotation Yrotation Xrotation
					JOINT Neck1
					{
						OFFSET -0.00746 1.82323 0.17286
						CHANNELS 3 Zrotation Yrotation Xrotation
						JOINT Head
						{
							OFFSET 0.11826 1.82121 -0.27841
							CHANNELS 3 Zrotation Yrotation Xrotation
							End Site
							{
								OFFSET 0.03496 1.85543 -0.11495
							}
						}
					}
				}
				JOINT LeftShoulder
				{
					OFFSET 0 0 0
					CHANNELS 3 Zrotation Yrotation Xrotation
					JOINT LeftArm
					{
						OFFSET 3.71926 0.78840 0.25473
						CHANNELS 3 Zrotation Yrotation Xrotation
						JOINT LeftForeArm
						{
							OFFSET 5.37587 -0.00000 0.00000
							CHANNELS 3 Zrotation Yrotation Xrotation
							JOINT LeftHand
							{
								OFFSET 3.35977 -0.00000 0.00000
								CHANNELS 3 Zrotation Yrotation Xrotation
								JOINT LeftFingerBase
								{
									OFFSET 0 0 0
									CHANNELS 3 Zrotation Yrotation Xrotation
									JOINT LeftHandIndex1
									{
										OFFSET 0.56186 -0.00000 0.00000
										CHANNELS 3 Zrotation Yrotation Xrotation
										End Site
										{
											OFFSET 0.45299 -0.00000 0.00000
										}
									}
								}
								JOINT LThumb
								{
									OFFSET 0 0 0
									CHANNELS 3 Zrotation Yrotation Xrotation
									End Site
									{
										OFFSET 0.45990 -0.00000 0.45990
									}
								}
							}
						}
					}
				}
				JOINT RightShoulder
				{
					OFFSET 0 0 0
					CHANNELS 3 Zrotation Yrotation Xrotation
					JOINT RightArm
					{
						OFFSET -3.65136 0.56074 0.01624
						CHANNELS 3 Zrotation Yrotation Xrotation
						JOINT RightForeArm
						{
							OFFSET -5.22819 -0.00000 0.00000
							CHANNELS 3 Zrotation Yrotation Xrotation
							JOINT RightHand
							{
								OFFSET -3.40764 -0.00000 0.00000
								CHANNELS 3 Zrotation Yrotation Xrotation
								JOINT RightFingerBase
								{
									OFFSET 0 0 0
									CHANNELS 3 Zrotation Yrotation Xrotation
									JOINT RightHandIndex1
									{
										OFFSET -0.58325 -0.00000 0.00000
										CHANNELS 3 Zrotation Yrotation Xrotation
										End Site
										{
											OFFSET -0.47024 -0.00000 0.00000
										}
									}
								}
								JOINT RThumb
								{
									OFFSET 0 0 0
									CHANNELS 3 Zrotation Yrotation Xrotation
									End Site
									{
										OFFSET -0.47742 -0.00000 0.47742
									}
								}
							}
						}
					}
				}
			}
		}
	}
}
MOTION
Frames: 12
Frame Time: .0083333
49.4537 16.7832 -7.5079 0 0 0 0 0 0 -21 0 0 0 0 0 0 0 0 0 0 0 0 0 0 21 0 0 0 0 0 0 0 0 0 0 0 0 0 0 0 0 0 0 0 0 0 0 -16 0 0 21 0 0 11 0 0 0 -8 0 0 0 0 0 0 0 0 0 0 0 0 0 0 0 0 0 0 0 0 8 0 0 0 0 0 0 0 0 0 0 0 0 0 0 0 0 0
49.4537 16.7832 -7.5079 -164.2260 -87.7710 162.9330 0.0000 0.0000 0.0000 -17.8450 2.0348 -4.2984 1.0403 6.4869 18.2038 0.3287 5.4149 -14.1778 0.2260 -3.0602 -8.4463 0.0000 0.0000 0.0000 20.8753 5.1470 -9.2722 -2.9396 -10.5966 30.9313 -1.5146 0.0617 -23.2693 -1.2255 -7.0212 19.7782 -0.0326 0.7124 -1.4620 0.8029 0.8507 4.5118 0.8998 0.3732 5.4714 -2.5825 -3.3502 -14.9061 6.7469 -5.8713 20.6566 1.9978 -2.3256 9.2429 -0.0000 0.0000 0.0000 -89.1860 -4.8683 30.0081 14.6319 -23.6308 -3.0769 -0.0000 0.0000 -8.5791 20.3914 17.3488 6.3251 -7.1250 0.0000 -0.0000 -7.3271 48.2750 -0.5949 -0.0000 0.0000 0.0000 88.7748 2.5354 16.9882 -11.8958 19.6482 -2.0671 0.0000 0.0000 3.4807 -26.7678 4.3774 -2.2049 7.1250 -0.0000 -0.0000 -0.0893 -25.0793 -0.0430
49.4566 16.7832 -7.5114 -164.6610 -87.7956 163.3200 0.0000 0.0000 0.0000 -17.8561 2.0747 -4.2352 1.0349 6.4705 18.1558 0.3283 5.3956 -14.1559 0.2256 -3.0572 -8.4382 0.0000 0.0000 0.0000 20.8630 5.0966 -9.2417 -2.9392 -10.5960 30.9292 -1.5231 0.0657 -23.3340 -1.2047 -6.9635 19.6073 -0.0451 0.6923 -1.4653 0.8274 0.8236 4.4959 0.9305 0.3588 5.4566 -2.6555 -3.3574 -14.8156 6.7613 -5.8690 20.6536 2.0163 -2.3313 9.2274 -0.0000 -0.0000 0.0000 -89.2700 -4.7756 29.8813 14.5085 -23.4570 -3.0276 -0.0000 0.0000 -8.6232 20.5758 17.0846 6.2934 -7.1250 0.0000 -0.0000 -7.0830 48.0265 -0.5314 -0.0000 -0.0000 0.0000 88.7260 2.4075 17.1947 -11.9572 19.7404 -2.0878 0.0000 0.0000 3.3347 -26.6320 3.6951 -1.8510 7.1250 -0.0000 -0.0000 -0.0055 -25.8476 -0.0026
49.4602 16.7829 -7.5148 -165.2640 -87.8458 163.8900 0.0000 0.0000 0.0000 -17.8862 2.0742 -4.1855 1.0290 6.4526 18.1036 0.3244 5.4055 -14.1070 0.2311 -3.0940 -8.5406 0.0000 0.0000 0.0000 20.8360 5.0606 -9.2247 -2.9402 -10.5975 30.9343 -1.5252 0.0608 -23.3516 -1.1988 -6.9470 19.5586 -0.0605 0.6643 -1.4758 0.8351 0.7885 4.4391 0.9444 0.3416 5.4030 -2.7106 -3.3282 -14.5848 6.7748 -5.8220 20.6267 2.0388 -2.3195 9.1744 0.0000 -0.0000 0.0000 -89.3125 -4.6213 29.7317 14.3994 -23.3028 -2.9843 -0.0000 0.0000 -8.5176 20.5750 17.1927 6.3314 -7.1250 0.0000 -0.0000 -7.1116 48.1392 -0.5534 0.0000 -0.0000 0.0000 88.7094 2.2558 17.3197 -11.9969 19.8000 -2.1012 0.0000 0.0000 3.2654 -26.5819 3.6552 -1.8271 7.1250 -0.0000 -0.0000 0.0314 -25.8939 0.0146
49.4641 16.7828 -7.5179 -166.2910 -87.8725 164.8970 0.0000 0.0000 0.0000 -17.9271 2.0670 -4.1441 1.0232 6.4348 18.0514 0.3217 5.4263 -14.0864 0.2283 -3.0754 -8.4887 0.0000 0.0000 0.0000 20.7934 5.0335 -9.2245 -2.9412 -10.5992 30.9397 -1.5295 0.0537 -23.3874 -1.1710 -6.8690 19.3278 -0.0892 0.6768 -1.5007 0.8293 0.8054 4.4823 0.9564 0.3481 5.4621 -2.6613 -3.3544 -14.7588 6.7350 -5.8579 20.6494 2.0103 -2.3310 9.2139 -0.0000 -0.0000 0.0000 -89.3193 -4.7300 29.6329 14.2404 -23.0774 -2.9217 -0.0000 0.0000 -8.3728 20.5154 17.1466 6.2953 -7.1250 0.0000 -0.0000 -7.1564 48.0824 -0.5468 -0.0000 -0.0000 0.0000 88.7211 2.3154 17.3856 -12.0400 19.8645 -2.1158 0.0000 0.0000 3.1349 -26.6223 3.7879 -1.8966 7.1250 -0.0000 -0.0000 0.0041 -25.7442 0.0019
49.4676 16.7826 -7.5210 -167.2800 -87.9054 165.8570 0.0000 0.0000 0.0000 -17.9658 2.0761 -4.0967 1.0170 6.4158 17.9957 0.3189 5.4349 -14.0520 0.2287 -3.0784 -8.4972 0.0000 0.0000 0.0000 20.7524 4.9950 -9.2200 -2.9430 -10.6022 30.9498 -1.5320 0.0387 -23.4112 -1.1457 -6.7969 19.1151 -0.1117 0.6745 -1.5171 0.8273 0.8035 4.4826 0.9670 0.3463 5.4716 -2.6633 -3.3623 -14.7675 6.7250 -5.8674 20.6645 2.0060 -2.3362 9.2210 -0.0000 0.0000 0.0000 -89.3431 -4.7207 29.5089 14.1010 -22.8789 -2.8672 -0.0000 0.0000 -8.2567 20.5179 17.1268 6.2891 -7.1250 0.0000 -0.0000 -7.1490 48.0621 -0.5427 -0.0000 0.0000 0.0000 88.7208 2.2751 17.4817 -12.0864 19.9342 -2.1317 0.0000 0.0000 3.0269 -26.6228 3.7614 -1.8834 7.1250 -0.0000 -0.0000 0.0032 -25.7737 0.0015
49.4710 16.7824 -7.5240 -168.3870 -87.9372 166.9400 0.0000 0.0000 0.0000 -18.0080 2.0867 -4.0536 1.0108 6.3968 17.9402 0.3160 5.4405 -14.0157 0.2288 -3.0789 -8.4985 0.0000 0.0000 0.0000 20.7061 4.9555 -9.2210 -2.9453 -10.6060 30.9623 -1.5333 0.0256 -23.4257 -1.1218 -6.7278 18.9115 -0.1331 0.6748 -1.5366 0.8206 0.8052 4.4832 0.9725 0.3464 5.4831 -2.6598 -3.3714 -14.7823 6.7163 -5.8803 20.6825 2.0007 -2.3423 9.2303 -0.0000 -0.0000 0.0000 -89.3584 -4.7148 29.3815 13.9595 -22.6768 -2.8125 -0.0000 0.0000 -8.1287 20.5099 17.1312 6.2880 -7.1250 0.0000 -0.0000 -7.1576 48.0655 -0.5439 -0.0000 -0.0000 0.0000 88.7279 2.2385 17.5670 -12.1350 20.0068 -2.1483 0.0000 0.0000 2.9200 -26.6380 3.7768 -1.8923 7.1250 -0.0000 -0.0000 -0.0080 -25.7560 -0.0037
49.4742 16.7822 -7.5268 -169.5590 -87.9681 168.0920 0.0000 0.0000 0.0000 -18.0509 2.1014 -4.0135 1.0042 6.3767 17.8813 0.3133 5.4412 -13.9768 0.2284 -3.0762 -8.4911 0.0000 0.0000 0.0000 20.6567 4.9134 -9.2290 -2.9482 -10.6108 30.9781 -1.5339 0.0193 -23.4326 -1.1013 -6.6682 18.7361 -0.1533 0.6755 -1.5604 0.8123 0.8077 4.4826 0.9757 0.3470 5.4960 -2.6613 -3.3836 -14.7955 6.7125 -5.8982 20.7037 1.9972 -2.3506 9.2409 0.0000 -0.0000 0.0000 -89.3714 -4.7042 29.2478 13.8177 -22.4735 -2.7580 -0.0000 0.0000 -8.0008 20.5063 17.1298 6.2864 -7.1250 0.0000 -0.0000 -7.1607 48.0635 -0.5438 0.0000 -0.0000 0.0000 88.7358 2.1988 17.6540 -12.1876 20.0854 -2.1663 0.0000 0.0000 2.8083 -26.6578 3.7746 -1.8929 7.1250 -0.0000 -0.0000 -0.0230 -25.7577 -0.0107
49.4771 16.7820 -7.5293 -170.8220 -87.9997 169.3350 0.0000 0.0000 0.0000 -18.0960 2.1224 -3.9756 0.9975 6.3560 17.8209 0.3109 5.4340 -13.9348 0.2280 -3.0735 -8.4833 0.0000 0.0000 0.0000 20.6033 4.8661 -9.2409 -2.9516 -10.6163 30.9963 -1.5337 0.0236 -23.4294 -1.0873 -6.6272 18.6155 -0.1719 0.6745 -1.5868 0.8020 0.8081 4.4764 0.9758 0.3468 5.5044 -2.6707 -3.3939 -14.7904 6.7162 -5.9136 20.7244 1.9982 -2.3581 9.2484 -0.0000 -0.0000 0.0000 -89.3825 -4.6748 29.1078 13.6791 -22.2741 -2.7053 -0.0000 0.0000 -7.8753 20.5032 17.1453 6.2908 -7.1250 0.0000 -0.0000 -7.1677 48.0792 -0.5471 -0.0000 -0.0000 0.0000 88.7436 2.1476 17.7431 -12.2425 20.1674 -2.1852 0.0000 0.0000 2.6956 -26.6740 3.7512 -1.8825 7.1250 -0.0000 -0.0000 -0.0359 -25.7832 -0.0167
49.4800 16.7818 -7.5318 -172.0810 -88.0275 170.5780 0.0000 0.0000 0.0000 -18.1389 2.1451 -3.9411 0.9907 6.3349 17.7593 0.3086 5.4246 -13.8928 0.2273 -3.0689 -8.4705 0.0000 0.0000 0.0000 20.5515 4.8215 -9.2570 -2.9553 -10.6223 31.0163 -1.5334 0.0390 -23.4223 -1.0793 -6.6035 18.5458 -0.1881 0.6726 -1.6177 0.7918 0.8072 4.4705 0.9746 0.3461 5.5159 -2.6798 -3.4025 -14.7813 6.7199 -5.9262 20.7370 1.9996 -2.3645 9.2521 0.0000 -0.0000 0.0000 -89.3928 -4.6416 28.9538 13.5427 -22.0772 -2.6538 -0.0000 0.0000 -7.7447 20.4956 17.1531 6.2910 -7.1250 0.0000 -0.0000 -7.1769 48.0862 -0.5491 0.0000 -0.0000 0.0000 88.7498 2.0986 17.8355 -12.2984 20.2506 -2.2045 0.0000 0.0000 2.5828 -26.6854 3.7231 -1.8694 7.1250 -0.0000 -0.0000 -0.0452 -25.8142 -0.0210
49.4830 16.7817 -7.5341 -173.3360 -88.0519 171.8190 0.0000 0.0000 0.0000 -18.1799 2.1683 -3.9105 0.9841 6.3143 17.6990 0.3064 5.4136 -13.8514 0.2264 -3.0630 -8.4542 0.0000 0.0000 0.0000 20.5021 4.7810 -9.2763 -2.9589 -10.6283 31.0362 -1.5328 0.0610 -23.4102 -1.0788 -6.6020 18.5416 -0.2036 0.6698 -1.6492 0.7832 0.8050 4.4657 0.9746 0.3446 5.5288 -2.6913 -3.4096 -14.7786 6.7245 -5.9352 20.7429 2.0020 -2.3692 9.2547 0.0000 -0.0000 0.0000 -89.4037 -4.6045 28.7943 13.4122 -21.8882 -2.6050 -0.0000 0.0000 -7.6176 20.4810 17.1643 6.2901 -7.1250 0.0000 -0.0000 -7.1937 48.0957 -0.5521 0.0000 -0.0000 0.0000 88.7512 2.0568 17.9292 -12.3533 20.3323 -2.2235 0.0000 0.0000 2.4724 -26.6865 3.6960 -1.8559 7.1250 -0.0000 -0.0000 -0.0467 -25.8446 -0.0217
49.4864 16.7817 -7.5364 -174.5350 -88.0700 173.0060 0.0000 0.0000 0.0000 -18.2168 2.1903 -3.8842 0.9779 6.2949 17.6425 0.3043 5.4054 -13.8123 0.2251 -3.0540 -8.4292 0.0000 0.0000 0.0000 20.4581 4.7487 -9.2959 -2.9624 -10.6339 31.0549 -1.5319 0.0764 -23.3981 -1.0788 -6.6019 18.5413 -0.2196 0.6672 -1.6784 0.7773 0.8027 4.4646 0.9777 0.3430 5.5443 -2.6997 -3.4140 -14.7874 6.7265 -5.9393 20.7420 2.0034 -2.3713 9.2565 0.0000 0.0000 0.0000 -89.4189 -4.5741 28.6159 13.2820 -21.6990 -2.5566 -0.0000 0.0000 -7.4785 20.4644 17.1556 6.2816 -7.1250 0.0000 -0.0000 -7.2072 48.0843 -0.5511 0.0000 0.0000 0.0000 88.7470 2.0286 18.0254 -12.4051 20.4094 -2.2416 0.0000 0.0000 2.3670 -26.6865 3.6840 -1.8499 7.1250 -0.0000 -0.0000 -0.0470 -25.8579 -0.0218
